<?xml version="1.0" encoding="utf-8"?>
<!-- Generator: Adobe Illustrator 15.1.0, SVG Export Plug-In . SVG Version: 6.00 Build 0)  -->
<!DOCTYPE svg PUBLIC "-//W3C//DTD SVG 1.1//EN" "http://www.w3.org/Graphics/SVG/1.1/DTD/svg11.dtd">
<svg version="1.1" id="Layer_1" xmlns="http://www.w3.org/2000/svg" xmlns:xlink="http://www.w3.org/1999/xlink" x="0px" y="0px"
	 width="841.89px" height="595.28px" viewBox="0 0 841.89 595.28" enable-background="new 0 0 841.89 595.28" xml:space="preserve">
<g>
	<path fill="#401476" d="M416.252,267.381c3.025,3.147,4.891,7.417,4.891,12.117c0,4.874-2.006,9.288-5.232,12.463l0.385,0
		c5.904,0,11.33,2.397,15.281,6.751c1.552,1.71,2.818,3.677,3.76,5.791l0.716-0.717l12.081-12.08l3.805-3.805l3.805,3.805
		l3.082,3.081l3.805,3.806l-3.805,3.805l-8.275,8.275l2.898,2.898l3.807,3.807l-3.807,3.805l-6.715,6.715H466.8v-60.517H416.252z"/>
	<path fill="#401476" d="M403.646,291.614c2.537,0,4.892-0.783,6.838-2.117c3.186-2.183,5.277-5.845,5.277-9.998
		c0-4.154-2.092-7.816-5.277-10c-1.946-1.334-4.301-2.117-6.838-2.117c-6.691,0-12.115,5.425-12.115,12.117
		C391.531,286.19,396.955,291.614,403.646,291.614z"/>
	<path fill="#401476" d="M442.938,310.674l12.08-12.08l-3.08-3.081l-12.08,12.081l-2.117,2.117l-5.875,5.873v-2.185
		c0-8.11-6.209-16.056-15.57-16.056l-5.811-0.004l-19.617-0.014c-8.525,0-15.382,7.053-15.382,15.85v14.723h34.999h9.32h19.316
		l10.521-10.52L442.938,310.674z"/>
</g>
</svg>
