<?xml version="1.0" encoding="utf-8"?>
<!-- Generator: Adobe Illustrator 15.1.0, SVG Export Plug-In . SVG Version: 6.00 Build 0)  -->
<!DOCTYPE svg PUBLIC "-//W3C//DTD SVG 1.1//EN" "http://www.w3.org/Graphics/SVG/1.1/DTD/svg11.dtd">
<svg version="1.1" id="Layer_1" xmlns="http://www.w3.org/2000/svg" xmlns:xlink="http://www.w3.org/1999/xlink" x="0px" y="0px"
	 width="841.89px" height="595.28px" viewBox="0 0 841.89 595.28" enable-background="new 0 0 841.89 595.28" xml:space="preserve">
<g>
	<path fill="#401476" d="M463.146,304.652v-12.47l-10.454-0.956c-0.844-3.809-2.344-7.367-4.378-10.557l6.721-8.072l-8.818-8.816
		l-8.071,6.718c-3.19-2.032-6.748-3.531-10.558-4.376l-0.956-10.455H414.16l-0.954,10.455c-3.809,0.845-7.367,2.344-10.557,4.376
		l-8.073-6.718l-8.818,8.816l6.72,8.072c-2.031,3.189-3.531,6.748-4.376,10.557l-10.455,0.956v12.47l10.455,0.957
		c0.845,3.809,2.345,7.367,4.376,10.557l-6.72,8.072l8.818,8.816l8.073-6.719c3.189,2.033,6.748,3.531,10.557,4.377l0.954,10.455
		h12.472l0.956-10.455c3.81-0.846,7.367-2.344,10.558-4.377l8.071,6.719l8.818-8.816l-6.721-8.072
		c2.034-3.189,3.534-6.748,4.378-10.557L463.146,304.652z M420.397,314.652c-8.968,0-16.237-7.27-16.237-16.235
		c0-8.966,7.27-16.235,16.237-16.235c8.965,0,16.234,7.27,16.234,16.235C436.632,307.383,429.362,314.652,420.397,314.652z"/>
</g>
</svg>
