<?xml version="1.0" encoding="utf-8"?>
<!-- Generator: Adobe Illustrator 15.1.0, SVG Export Plug-In . SVG Version: 6.00 Build 0)  -->
<!DOCTYPE svg PUBLIC "-//W3C//DTD SVG 1.1//EN" "http://www.w3.org/Graphics/SVG/1.1/DTD/svg11.dtd">
<svg version="1.1" id="Layer_1" xmlns="http://www.w3.org/2000/svg" xmlns:xlink="http://www.w3.org/1999/xlink" x="0px" y="0px"
	 width="841.89px" height="595.28px" viewBox="0 0 841.89 595.28" enable-background="new 0 0 841.89 595.28" xml:space="preserve">
<g>
	<g>
		<circle fill="#84E4FD" cx="420.483" cy="297.117" r="30.792"/>
	</g>
	<g>
		<polygon fill="#FE6D34" points="410.373,279.354 430.873,274.688 428.373,316.854 408.706,316.854 		"/>
		<polygon points="413.04,281.188 427.207,278.688 426.039,301.021 411.873,301.021 		"/>
		<polygon points="411.873,303.104 414.79,303.104 414.79,305.708 411.456,305.604 		"/>
		<polygon points="417.206,303.104 420.123,303.104 420.123,305.708 416.789,305.604 		"/>
		<polygon points="422.566,303.104 425.484,303.104 425.484,305.708 422.15,305.604 		"/>
		<polygon points="411.858,307.042 414.775,307.042 414.775,309.646 411.442,309.542 		"/>
		<polygon points="417.191,307.042 420.108,307.042 420.108,309.646 416.775,309.542 		"/>
		<polygon points="422.553,307.042 425.471,307.042 425.471,309.646 422.137,309.542 		"/>
		<polygon points="411.581,311.042 414.498,311.042 414.498,313.646 411.164,313.542 		"/>
		<polygon points="416.914,311.042 419.831,311.042 419.831,313.646 416.497,313.542 		"/>
		<polygon points="422.275,311.042 425.193,311.042 425.193,313.646 421.858,313.542 		"/>
	</g>
</g>
</svg>
