<?xml version="1.0" encoding="utf-8"?>
<!-- Generator: Adobe Illustrator 15.1.0, SVG Export Plug-In . SVG Version: 6.00 Build 0)  -->
<!DOCTYPE svg PUBLIC "-//W3C//DTD SVG 1.1//EN" "http://www.w3.org/Graphics/SVG/1.1/DTD/svg11.dtd">
<svg version="1.1" id="Layer_1" xmlns="http://www.w3.org/2000/svg" xmlns:xlink="http://www.w3.org/1999/xlink" x="0px" y="0px"
	 width="841.89px" height="595.28px" viewBox="0 0 841.89 595.28" enable-background="new 0 0 841.89 595.28" xml:space="preserve">
<g>
	<g>
		<circle fill="#84E4FD" cx="421.374" cy="297.403" r="30.792"/>
	</g>
	<g>
		<polygon fill="#FFC700" points="408.903,276.637 402.125,294.886 425.24,301.316 433.582,276.637 		"/>
		<polygon points="405.949,290.541 410.12,279.07 430.454,279.07 425.414,293.147 		"/>
		<polygon points="405.689,291.583 404.907,293.668 409.251,294.537 410.078,292.234 		"/>
		<polygon points="412.022,292.509 411.071,295.046 415.981,296.104 416.986,293.302 		"/>
		<polygon points="418.428,293.625 417.279,296.837 423.503,298.145 424.695,294.715 		"/>
		<polygon fill="#FFC700" points="432.801,288.977 427.456,304.487 399.562,295.885 402.951,286.76 399.562,286.76 395,298.145 
			434.756,316.74 443.75,288.977 		"/>
	</g>
</g>
</svg>
