<?xml version="1.0" encoding="utf-8"?>
<!-- Generator: Adobe Illustrator 15.1.0, SVG Export Plug-In . SVG Version: 6.00 Build 0)  -->
<!DOCTYPE svg PUBLIC "-//W3C//DTD SVG 1.1//EN" "http://www.w3.org/Graphics/SVG/1.1/DTD/svg11.dtd">
<svg version="1.1" id="Layer_1" xmlns="http://www.w3.org/2000/svg" xmlns:xlink="http://www.w3.org/1999/xlink" x="0px" y="0px"
	 width="841.89px" height="595.28px" viewBox="0 0 841.89 595.28" enable-background="new 0 0 841.89 595.28" xml:space="preserve">
<g>
	<g>
		<circle fill="#84E4FD" cx="420.788" cy="297.103" r="30.792"/>
	</g>
	<g>
		<polygon fill="#9900FF" points="414.041,281.99 439.041,281.99 444.416,305.74 421.166,312.49 		"/>
		<polygon fill="#9900FF" points="412.166,281.99 403.791,281.99 411.041,315.24 419.416,313.115 		"/>
		<polygon fill="#9900FF" points="402.166,281.99 398.916,281.99 405.666,316.99 408.791,315.99 		"/>
		<polygon points="418.041,287.365 438.541,287.365 441.666,301.115 422.416,305.99 		"/>
		<polygon points="406.791,287.782 412.541,287.782 415.625,301.365 410.125,302.282 		"/>
		<polygon points="410.541,303.615 411.709,303.437 412.27,304.782 410.937,305.012 		"/>
		<polygon points="414.76,302.827 415.929,302.648 416.489,303.994 415.156,304.224 		"/>
		<polygon points="412.706,303.218 413.875,303.039 414.435,304.385 413.102,304.614 		"/>
		<polygon points="411.067,305.979 412.235,305.8 412.796,307.146 411.462,307.375 		"/>
		<polygon points="415.286,305.19 416.455,305.012 417.015,306.357 415.682,306.587 		"/>
		<polygon points="413.232,305.581 414.4,305.402 414.961,306.748 413.627,306.978 		"/>
		<polygon points="411.786,308.342 412.955,308.163 413.515,309.509 412.182,309.738 		"/>
		<polygon points="416.005,307.554 417.174,307.375 417.734,308.721 416.401,308.95 		"/>
		<polygon points="413.951,307.944 415.12,307.766 415.68,309.111 414.347,309.341 		"/>
	</g>
</g>
</svg>
