<?xml version="1.0" encoding="utf-8"?>
<!-- Generator: Adobe Illustrator 15.1.0, SVG Export Plug-In . SVG Version: 6.00 Build 0)  -->
<!DOCTYPE svg PUBLIC "-//W3C//DTD SVG 1.1//EN" "http://www.w3.org/Graphics/SVG/1.1/DTD/svg11.dtd">
<svg version="1.1" id="Layer_1" xmlns="http://www.w3.org/2000/svg" xmlns:xlink="http://www.w3.org/1999/xlink" x="0px" y="0px"
	 width="841.89px" height="595.28px" viewBox="0 0 841.89 595.28" enable-background="new 0 0 841.89 595.28" xml:space="preserve">
<g>
	<g>
		<linearGradient id="SVGID_1_" gradientUnits="userSpaceOnUse" x1="420.7192" y1="267.3408" x2="420.7192" y2="328.6214">
			<stop  offset="0" style="stop-color:#DFF5FB"/>
			<stop  offset="1" style="stop-color:#CBDBEB"/>
		</linearGradient>
		<circle fill="url(#SVGID_1_)" cx="420.718" cy="297.457" r="30.792"/>
	</g>
	<g>
		<path fill="#A38629" d="M441.162,305.111c0.034,3.21-2.447,5.636-5.544,5.417l-32.886-2.321c-3.097-0.219-5.019-2.52-4.294-5.141
			l3.851-13.918c0.725-2.621,3.437-4.868,6.057-5.02l27.826-1.609c2.621-0.152,4.772,2.328,4.808,5.539L441.162,305.111z"/>
		<polygon points="410.138,286.332 405.968,305.909 432.585,307.488 433.417,285.317 		"/>
		<polygon fill="#4EC3E6" points="419.348,299.721 410.535,299.475 412.142,290.954 420.462,290.818 		"/>
		<polygon fill="#4FC3E5" points="428.655,303.859 423.695,303.637 424.212,298.098 429.008,298.193 		"/>
	</g>
</g>
</svg>
