<?xml version="1.0" encoding="utf-8"?>
<!-- Generator: Adobe Illustrator 15.1.0, SVG Export Plug-In . SVG Version: 6.00 Build 0)  -->
<!DOCTYPE svg PUBLIC "-//W3C//DTD SVG 1.1//EN" "http://www.w3.org/Graphics/SVG/1.1/DTD/svg11.dtd">
<svg version="1.1" id="Layer_1" xmlns="http://www.w3.org/2000/svg" xmlns:xlink="http://www.w3.org/1999/xlink" x="0px" y="0px"
	 width="841.891px" height="595.279px" viewBox="0 0 841.891 595.279" enable-background="new 0 0 841.891 595.279"
	 xml:space="preserve">
<g>
	<g>
		<circle fill="#84E4FD" cx="421.219" cy="297.404" r="30.792"/>
	</g>
	<g>
		<polygon fill="#EB6170" points="439.268,309.866 404.889,316.293 410.029,279.021 433.484,274.846 		"/>
		<path d="M435.644,303.82c0.236,1.688-1.687,3.447-4.291,3.934l-18.351,3.418c-2.606,0.484-4.557-0.562-4.355-2.337l2.661-23.509
			c0.2-1.776,1.916-3.495,3.832-3.839l13.487-2.417c1.915-0.344,3.658,0.744,3.896,2.433L435.644,303.82z"/>
		<path fill="#85B26D" d="M421.78,287.992c0.012,1.48-1.477,2.954-3.325,3.293l-0.837,0.151c-1.848,0.336-3.258-0.61-3.146-2.119
			l0.076-1.044c0.108-1.507,1.594-2.979,3.312-3.29l0.778-0.141c1.719-0.311,3.121,0.64,3.134,2.121L421.78,287.992z"/>
		<path fill="#4BB5EA" d="M430.641,286.383c0.16,1.451-1.208,2.901-3.057,3.238l-0.838,0.151c-1.849,0.336-3.377-0.587-3.416-2.062
			l-0.024-1.023c-0.038-1.477,1.325-2.925,3.044-3.234l0.778-0.142c1.719-0.31,3.241,0.614,3.401,2.065L430.641,286.383z"/>
		<path fill="#FFC700" d="M431.525,294.404c0.159,1.45-1.343,2.929-3.356,3.3l-0.911,0.168c-2.015,0.371-3.68-0.525-3.717-2.002
			l-0.025-1.023c-0.037-1.476,1.459-2.951,3.345-3.296l0.854-0.156c1.884-0.344,3.541,0.554,3.7,2.004L431.525,294.404z"/>
	</g>
</g>
</svg>
