<?xml version="1.0" encoding="utf-8"?>
<!-- Generator: Adobe Illustrator 15.1.0, SVG Export Plug-In . SVG Version: 6.00 Build 0)  -->
<!DOCTYPE svg PUBLIC "-//W3C//DTD SVG 1.1//EN" "http://www.w3.org/Graphics/SVG/1.1/DTD/svg11.dtd">
<svg version="1.1" id="Layer_1" xmlns="http://www.w3.org/2000/svg" xmlns:xlink="http://www.w3.org/1999/xlink" x="0px" y="0px"
	 width="841.89px" height="595.28px" viewBox="0 0 841.89 595.28" enable-background="new 0 0 841.89 595.28" xml:space="preserve">
<g>
	<g>
		<linearGradient id="SVGID_1_" gradientUnits="userSpaceOnUse" x1="420.1792" y1="211.626" x2="420.1792" y2="358.2347">
			<stop  offset="0" style="stop-color:#DFF5FB"/>
			<stop  offset="1" style="stop-color:#CBDBEB"/>
		</linearGradient>
		<circle fill="url(#SVGID_1_)" cx="420.178" cy="283.675" r="73.667"/>
	</g>
	<path fill="#401476" d="M465.277,280.556c-0.031-0.462-0.06-0.924-0.105-1.381c-0.879-8.903-4.348-17.04-9.633-23.666
		c-1.688-2.115-3.56-4.073-5.593-5.854c-6.895-6.037-15.633-10.019-25.267-10.971c-1.48-0.146-2.981-0.225-4.5-0.225
		s-3.02,0.078-4.5,0.225c-9.634,0.952-18.372,4.934-25.267,10.971c-2.033,1.781-3.905,3.739-5.593,5.854
		c-5.285,6.626-8.754,14.763-9.633,23.666c-0.146,1.48-0.225,2.981-0.225,4.5c0,1.52,0.078,3.02,0.225,4.5
		c0.882,8.926,4.364,17.082,9.672,23.717c1.689,2.111,3.564,4.066,5.6,5.845c6.888,6.015,15.608,9.98,25.221,10.931
		c0.345,0.034,0.693,0.053,1.04,0.079c1.144,0.087,2.294,0.146,3.46,0.146s2.316-0.059,3.46-0.146
		c0.347-0.026,0.695-0.045,1.04-0.079c9.612-0.95,18.333-4.916,25.221-10.931c2.035-1.778,3.91-3.733,5.6-5.845
		c5.308-6.635,8.79-14.791,9.672-23.717c0.046-0.457,0.074-0.919,0.105-1.38c0.07-1.032,0.119-2.07,0.119-3.12
		S465.348,281.587,465.277,280.556z M456.106,279.175h-9.898c-0.379-4.515-1.315-8.904-2.759-13.062
		c2.022-1.216,3.94-2.588,5.741-4.096C452.864,266.927,455.312,272.798,456.106,279.175z M435.219,297.463
		c-3.352-1.182-6.879-1.986-10.539-2.348v-6.94h12.475C436.833,291.373,436.184,294.488,435.219,297.463z M403.793,288.175h11.887
		v6.94c-3.467,0.343-6.813,1.086-10.005,2.167C404.74,294.361,404.108,291.309,403.793,288.175z M405.646,270.156
		c3.2,1.087,6.557,1.834,10.034,2.178v6.841h-11.887C404.104,276.071,404.728,273.05,405.646,270.156z M424.68,252.8
		c2.932,2.817,5.417,6.135,7.406,9.793c-2.372,0.804-4.849,1.373-7.406,1.684V252.8z M415.68,253.396v10.881
		c-2.379-0.288-4.688-0.798-6.908-1.515C410.64,259.288,412.961,256.126,415.68,253.396z M415.68,303.173v10.781
		c-2.695-2.709-4.999-5.844-6.859-9.283C411.024,303.962,413.318,303.459,415.68,303.173z M424.68,314.541v-11.368
		c2.54,0.308,5.001,0.872,7.357,1.667C430.057,308.463,427.585,311.746,424.68,314.541z M424.68,279.175v-6.841
		c3.67-0.363,7.209-1.171,10.568-2.357c0.948,2.947,1.589,6.031,1.906,9.198H424.68z M443.693,256.164
		c-1.109,0.906-2.276,1.745-3.487,2.521c-1.543-2.897-3.354-5.621-5.399-8.13C438.046,251.992,441.035,253.889,443.693,256.164z
		 M406.456,250.167c-2.244,2.694-4.208,5.648-5.862,8.802c-1.37-0.853-2.684-1.788-3.928-2.806
		C399.57,253.678,402.868,251.643,406.456,250.167z M391.169,262.018c1.944,1.628,4.029,3.091,6.231,4.378
		c-1.389,4.073-2.291,8.367-2.661,12.779h-10.487C385.047,272.798,387.495,266.926,391.169,262.018z M384.252,288.175h10.488
		c0.373,4.44,1.286,8.763,2.691,12.861c-2.195,1.28-4.276,2.735-6.216,4.355C387.517,300.471,385.05,294.578,384.252,288.175z
		 M396.726,311.238c1.24-1.009,2.547-1.939,3.911-2.785c1.646,3.126,3.597,6.057,5.823,8.731
		C402.896,315.72,399.616,313.702,396.726,311.238z M434.799,316.798c2.029-2.489,3.829-5.189,5.365-8.062
		c1.204,0.77,2.364,1.603,3.47,2.502C440.988,313.493,438.017,315.372,434.799,316.798z M449.144,305.392
		c-1.797-1.501-3.711-2.864-5.729-4.076c1.46-4.182,2.411-8.599,2.792-13.141h9.899C455.31,294.578,452.843,300.471,449.144,305.392
		z"/>
</g>
</svg>
