<?xml version="1.0" encoding="utf-8"?>
<!-- Generator: Adobe Illustrator 15.1.0, SVG Export Plug-In . SVG Version: 6.00 Build 0)  -->
<!DOCTYPE svg PUBLIC "-//W3C//DTD SVG 1.1//EN" "http://www.w3.org/Graphics/SVG/1.1/DTD/svg11.dtd">
<svg version="1.1" id="Layer_1" xmlns="http://www.w3.org/2000/svg" xmlns:xlink="http://www.w3.org/1999/xlink" x="0px" y="0px"
	 width="841.89px" height="595.28px" viewBox="0 0 841.89 595.28" enable-background="new 0 0 841.89 595.28" xml:space="preserve">
<g>
	<g>
		<linearGradient id="SVGID_1_" gradientUnits="userSpaceOnUse" x1="413.9058" y1="214.8848" x2="413.9058" y2="361.4926">
			<stop  offset="0" style="stop-color:#DFF5FB"/>
			<stop  offset="1" style="stop-color:#CBDBEB"/>
		</linearGradient>
		<circle fill="url(#SVGID_1_)" cx="413.904" cy="286.934" r="73.666"/>
	</g>
	<g>
		<g>
			<g>
				<path fill="#401476" d="M410.75,326.511v-47.614h-37.154v47.614H410.75z M399.375,283.181h6.268v6.265h-6.268V283.181z
					 M399.375,293.158h6.268v6.266h-6.268V293.158z M399.375,303.136h6.268v6.266h-6.268V303.136z M389.074,283.181h6.264v6.265
					h-6.264V283.181z M389.074,293.158h6.264v6.266h-6.264V293.158z M389.074,303.136h6.264v6.266h-6.264V303.136z M378.771,283.181
					h6.266v6.265h-6.266V283.181z M378.771,293.158h6.266v6.266h-6.266V293.158z M378.771,303.136h6.266v6.266h-6.266V303.136z
					 M399.375,312.942h6.268v6.265h-6.268V312.942z M389.074,312.942h6.264v6.265h-6.264V312.942z M378.771,312.942h6.266v6.265
					h-6.266V312.942z"/>
			</g>
		</g>
		<g>
			<g>
				<path fill="#401476" d="M452.217,326.511v-79.154h-37.154v79.154H452.217z M440.842,283.181h6.266v6.265h-6.266V283.181z
					 M440.842,293.158h6.266v6.266h-6.266V293.158z M440.842,303.136h6.266v6.266h-6.266V303.136z M430.539,283.181h6.266v6.265
					h-6.266V283.181z M430.539,293.158h6.266v6.266h-6.266V293.158z M430.539,303.136h6.266v6.266h-6.266V303.136z M420.236,283.181
					h6.266v6.265h-6.266V283.181z M420.236,293.158h6.266v6.266h-6.266V293.158z M420.236,303.136h6.266v6.266h-6.266V303.136z
					 M440.842,252.676h6.266v6.266h-6.266V252.676z M440.842,262.654h6.266v6.265h-6.266V262.654z M440.842,272.631h6.266v6.266
					h-6.266V272.631z M430.539,252.676h6.266v6.266h-6.266V252.676z M430.539,262.654h6.266v6.265h-6.266V262.654z M430.539,272.631
					h6.266v6.266h-6.266V272.631z M420.236,252.676h6.266v6.266h-6.266V252.676z M420.236,262.654h6.266v6.265h-6.266V262.654z
					 M420.236,272.631h6.266v6.266h-6.266V272.631z M440.842,312.942h6.266v6.265h-6.266V312.942z M430.539,312.942h6.266v6.265
					h-6.266V312.942z M420.236,312.942h6.266v6.265h-6.266V312.942z"/>
			</g>
		</g>
	</g>
</g>
</svg>
