<?xml version="1.0" encoding="utf-8"?>
<!-- Generator: Adobe Illustrator 15.1.0, SVG Export Plug-In . SVG Version: 6.00 Build 0)  -->
<!DOCTYPE svg PUBLIC "-//W3C//DTD SVG 1.1//EN" "http://www.w3.org/Graphics/SVG/1.1/DTD/svg11.dtd">
<svg version="1.1" id="Layer_1" xmlns="http://www.w3.org/2000/svg" xmlns:xlink="http://www.w3.org/1999/xlink" x="0px" y="0px"
	 width="841.89px" height="595.28px" viewBox="0 0 841.89 595.28" enable-background="new 0 0 841.89 595.28" xml:space="preserve">
<g>
	<g>
		<linearGradient id="SVGID_1_" gradientUnits="userSpaceOnUse" x1="420.9448" y1="200.041" x2="420.9448" y2="346.6498">
			<stop  offset="0" style="stop-color:#DFF5FB"/>
			<stop  offset="1" style="stop-color:#CBDBEB"/>
		</linearGradient>
		<circle fill="url(#SVGID_1_)" cx="420.943" cy="272.09" r="73.667"/>
	</g>
	<g>
		<path fill="#401476" d="M446.293,245.785c-14.531-14.529-38.085-14.529-52.614,0c-14.527,14.527-14.527,38.083,0,52.611
			c14.528,14.528,38.084,14.528,52.614,0l-26.307-26.307L446.293,245.785z M412.828,261.206c-4.211,0-7.625-3.415-7.625-7.627
			c0-4.213,3.414-7.627,7.625-7.627c4.213,0,7.627,3.414,7.627,7.627C420.455,257.791,417.041,261.206,412.828,261.206z"/>
	</g>
</g>
</svg>
