<?xml version="1.0" encoding="utf-8"?>
<!-- Generator: Adobe Illustrator 15.1.0, SVG Export Plug-In . SVG Version: 6.00 Build 0)  -->
<!DOCTYPE svg PUBLIC "-//W3C//DTD SVG 1.1//EN" "http://www.w3.org/Graphics/SVG/1.1/DTD/svg11.dtd">
<svg version="1.1" id="Layer_1" xmlns="http://www.w3.org/2000/svg" xmlns:xlink="http://www.w3.org/1999/xlink" x="0px" y="0px"
	 width="841.89px" height="595.28px" viewBox="0 0 841.89 595.28" enable-background="new 0 0 841.89 595.28" xml:space="preserve">
<g>
	<g>
		<linearGradient id="SVGID_1_" gradientUnits="userSpaceOnUse" x1="411.3335" y1="204.4736" x2="411.3335" y2="351.0814">
			<stop  offset="0" style="stop-color:#DFF5FB"/>
			<stop  offset="1" style="stop-color:#CBDBEB"/>
		</linearGradient>
		<circle fill="url(#SVGID_1_)" cx="411.332" cy="276.522" r="73.666"/>
	</g>
	<path fill="#401476" d="M431.885,266.099v-33.521h-53.562v61.705h26.887v6.415c-3.086-0.77-6.775-0.438-10.285,1.193
		c-6.809,3.16-10.354,9.974-7.92,15.215s9.93,6.929,16.734,3.767c5.33-2.476,8.643-7.186,8.674-11.63h0.014v-14.96h19.459v-16.353
		h7.244v22.768c-3.086-0.77-6.775-0.438-10.285,1.193c-6.809,3.16-10.354,9.974-7.92,15.215c2.436,5.241,9.926,6.929,16.736,3.767
		c5.326-2.476,8.641-7.186,8.672-11.63h0.014v-43.145H431.885z M393.545,287.236h-8.119v-8.119h8.119V287.236z M393.545,274.065
		h-8.119v-8.119h8.119V274.065z M393.545,260.895h-8.119v-8.119h8.119V260.895z M393.545,247.723h-8.119v-8.119h8.119V247.723z
		 M424.85,287.236h-8.119v-8.119h8.119V287.236z M424.85,260.895h-8.119v-8.119h8.119V260.895z M424.85,247.723h-8.119v-8.119h8.119
		V247.723z"/>
</g>
</svg>
