<?xml version="1.0" encoding="utf-8"?>
<!-- Generator: Adobe Illustrator 15.1.0, SVG Export Plug-In . SVG Version: 6.00 Build 0)  -->
<!DOCTYPE svg PUBLIC "-//W3C//DTD SVG 1.1//EN" "http://www.w3.org/Graphics/SVG/1.1/DTD/svg11.dtd">
<svg version="1.1" id="Layer_1" xmlns="http://www.w3.org/2000/svg" xmlns:xlink="http://www.w3.org/1999/xlink" x="0px" y="0px"
	 width="841.89px" height="595.28px" viewBox="0 0 841.89 595.28" enable-background="new 0 0 841.89 595.28" xml:space="preserve">
<g>
	<g>
		<linearGradient id="SVGID_1_" gradientUnits="userSpaceOnUse" x1="433.5479" y1="188.2295" x2="433.5479" y2="334.8392">
			<stop  offset="0" style="stop-color:#DFF5FB"/>
			<stop  offset="1" style="stop-color:#CBDBEB"/>
		</linearGradient>
		<circle fill="url(#SVGID_1_)" cx="433.546" cy="260.279" r="73.667"/>
	</g>
	<path fill="#401476" d="M470.947,251.305v-11.621c0-0.182-0.02-0.359-0.053-0.534c-0.01-0.049-0.02-0.096-0.029-0.145
		c-0.035-0.149-0.078-0.295-0.137-0.437c-0.008-0.021-0.014-0.044-0.021-0.064c-0.066-0.155-0.15-0.303-0.242-0.444
		c-0.025-0.04-0.053-0.078-0.08-0.116c-0.084-0.114-0.172-0.223-0.27-0.324c-0.023-0.024-0.043-0.051-0.066-0.074
		c-0.119-0.118-0.252-0.225-0.391-0.322c-0.037-0.025-0.076-0.047-0.115-0.071c-0.061-0.039-0.119-0.081-0.186-0.115l-34.473-18.355
		c-0.881-0.471-1.938-0.471-2.818,0l-34.475,18.355c-0.066,0.035-0.127,0.079-0.193,0.119c-0.033,0.022-0.07,0.042-0.104,0.065
		c-0.143,0.099-0.273,0.207-0.396,0.327c-0.021,0.02-0.037,0.042-0.059,0.062c-0.102,0.106-0.191,0.219-0.277,0.338
		c-0.027,0.035-0.051,0.07-0.076,0.107c-0.092,0.144-0.176,0.292-0.244,0.449c-0.008,0.019-0.01,0.038-0.018,0.057
		c-0.059,0.145-0.105,0.293-0.141,0.445c-0.01,0.047-0.02,0.094-0.027,0.142c-0.031,0.176-0.055,0.354-0.055,0.535v41.189
		c0,1.108,0.609,2.127,1.59,2.647l34.475,18.355c0.025,0.015,0.057,0.02,0.086,0.033c0.152,0.076,0.312,0.136,0.477,0.185
		c0.061,0.018,0.115,0.04,0.172,0.054c0.219,0.05,0.441,0.082,0.676,0.082c0.23,0,0.453-0.032,0.672-0.082
		c0.059-0.014,0.113-0.036,0.17-0.053c0.166-0.049,0.326-0.109,0.479-0.185c0.029-0.014,0.061-0.019,0.088-0.034l34.473-18.355
		c0.979-0.521,1.59-1.539,1.59-2.647v-27.732C471.137,252.556,471.146,251.916,470.947,251.305z M433.477,224.728l28.09,14.956
		l-28.09,14.958l-28.092-14.958L433.477,224.728z"/>
</g>
</svg>
