<?xml version="1.0" encoding="utf-8"?>
<!-- Generator: Adobe Illustrator 15.1.0, SVG Export Plug-In . SVG Version: 6.00 Build 0)  -->
<!DOCTYPE svg PUBLIC "-//W3C//DTD SVG 1.1//EN" "http://www.w3.org/Graphics/SVG/1.1/DTD/svg11.dtd">
<svg version="1.1" id="Layer_1" xmlns="http://www.w3.org/2000/svg" xmlns:xlink="http://www.w3.org/1999/xlink" x="0px" y="0px"
	 width="841.89px" height="595.28px" viewBox="0 0 841.89 595.28" enable-background="new 0 0 841.89 595.28" xml:space="preserve">
<g>
	<g>
		<linearGradient id="SVGID_1_" gradientUnits="userSpaceOnUse" x1="420.9448" y1="202.5801" x2="420.9448" y2="349.1888">
			<stop  offset="0" style="stop-color:#DFF5FB"/>
			<stop  offset="1" style="stop-color:#CBDBEB"/>
		</linearGradient>
		<circle fill="url(#SVGID_1_)" cx="420.943" cy="274.629" r="73.667"/>
	</g>
	<g>
		<path fill="#401476" d="M444.746,306.467l-12.441-15.922v-20.362c2.328,0,4.219-1.888,4.219-4.218s-1.891-4.218-4.219-4.218
			h-22.72c-2.331,0-4.218,1.888-4.218,4.218s1.887,4.218,4.218,4.218h0.417v19.828l-12.859,16.456
			c-0.889,1.027-1.424,2.365-1.424,3.83c0,3.235,2.623,5.858,5.86,5.858h38.732c3.238,0,5.861-2.623,5.861-5.858
			C446.172,308.832,445.633,307.494,444.746,306.467z"/>
		<path fill="#401476" d="M424.461,254.832c0,1.941-1.574,3.517-3.518,3.517c-1.939,0-3.514-1.575-3.514-3.517
			s1.574-3.514,3.514-3.514C422.887,251.318,424.461,252.891,424.461,254.832z"/>
		<circle fill="#401476" cx="407.877" cy="241.998" r="6.159"/>
		<circle fill="#401476" cx="429.903" cy="228.952" r="8.96"/>
	</g>
</g>
</svg>
