<?xml version="1.0" encoding="utf-8"?>
<!-- Generator: Adobe Illustrator 15.1.0, SVG Export Plug-In . SVG Version: 6.00 Build 0)  -->
<!DOCTYPE svg PUBLIC "-//W3C//DTD SVG 1.1//EN" "http://www.w3.org/Graphics/SVG/1.1/DTD/svg11.dtd">
<svg version="1.1" id="Layer_1" xmlns="http://www.w3.org/2000/svg" xmlns:xlink="http://www.w3.org/1999/xlink" x="0px" y="0px"
	 width="841.89px" height="595.28px" viewBox="0 0 841.89 595.28" enable-background="new 0 0 841.89 595.28" xml:space="preserve">
<g>
	<g>
		<linearGradient id="SVGID_1_" gradientUnits="userSpaceOnUse" x1="420.9448" y1="192.5195" x2="420.9448" y2="339.1283">
			<stop  offset="0" style="stop-color:#DFF5FB"/>
			<stop  offset="1" style="stop-color:#CBDBEB"/>
		</linearGradient>
		<circle fill="url(#SVGID_1_)" cx="420.943" cy="264.569" r="73.667"/>
	</g>
	<g>
		<path fill="#401476" d="M463.695,270.805v-12.471l-10.453-0.956c-0.844-3.809-2.344-7.367-4.379-10.557l6.721-8.072l-8.818-8.816
			l-8.07,6.718c-3.191-2.032-6.748-3.531-10.559-4.376l-0.955-10.455h-12.473l-0.953,10.455c-3.809,0.845-7.367,2.344-10.557,4.376
			l-8.074-6.718l-8.818,8.816l6.721,8.072c-2.031,3.189-3.531,6.748-4.377,10.557l-10.455,0.956v12.471l10.455,0.956
			c0.846,3.809,2.346,7.367,4.377,10.557l-6.721,8.072l8.818,8.816l8.074-6.718c3.189,2.032,6.748,3.531,10.557,4.376l0.953,10.455
			h12.473l0.955-10.455c3.811-0.845,7.367-2.344,10.559-4.376l8.07,6.718l8.818-8.816l-6.721-8.072
			c2.035-3.189,3.535-6.748,4.379-10.557L463.695,270.805z M420.947,280.805c-8.969,0-16.238-7.27-16.238-16.235
			s7.27-16.235,16.238-16.235c8.965,0,16.235,7.27,16.235,16.235S429.912,280.805,420.947,280.805z"/>
	</g>
</g>
</svg>
