<?xml version="1.0" encoding="UTF-8" standalone="no"?>
<!-- Created with Inkscape (http://www.inkscape.org/) -->

<svg
   xmlns:dc="http://purl.org/dc/elements/1.1/"
   xmlns:cc="http://creativecommons.org/ns#"
   xmlns:rdf="http://www.w3.org/1999/02/22-rdf-syntax-ns#"
   xmlns:svg="http://www.w3.org/2000/svg"
   xmlns="http://www.w3.org/2000/svg"
   xmlns:sodipodi="http://sodipodi.sourceforge.net/DTD/sodipodi-0.dtd"
   xmlns:inkscape="http://www.inkscape.org/namespaces/inkscape"
   width="150"
   height="380"
   id="svg3613"
   version="1.1"
   inkscape:version="0.48.1 r9760"
   sodipodi:docname="handset_all.svg"
   inkscape:export-filename="/home/sopi/.midgard2/meego/com_meego_packages/static/images/device-handset.png"
   inkscape:export-xdpi="89.940002"
   inkscape:export-ydpi="89.940002">
  <defs
     id="defs3615" />
  <sodipodi:namedview
     id="base"
     pagecolor="#ffffff"
     bordercolor="#666666"
     borderopacity="1.0"
     inkscape:pageopacity="0.0"
     inkscape:pageshadow="2"
     inkscape:zoom="0.35"
     inkscape:cx="36.428571"
     inkscape:cy="520"
     inkscape:document-units="px"
     inkscape:current-layer="layer1"
     showgrid="false"
     inkscape:window-width="1440"
     inkscape:window-height="830"
     inkscape:window-x="0"
     inkscape:window-y="24"
     inkscape:window-maximized="1" />
  <metadata
     id="metadata3618">
    <rdf:RDF>
      <cc:Work
         rdf:about="">
        <dc:format>image/svg+xml</dc:format>
        <dc:type
           rdf:resource="http://purl.org/dc/dcmitype/StillImage" />
        <dc:title></dc:title>
      </cc:Work>
    </rdf:RDF>
  </metadata>
  <g
     inkscape:label="Layer 1"
     inkscape:groupmode="layer"
     id="layer1"
     transform="translate(0,-672.36218)">
    <g
       id="g3715"
       transform="matrix(1.6237984,0,0,1.6237984,-607.77963,284.21397)">
	<g
   id="g3717">
		<linearGradient
   y2="328.70731"
   x2="420.48389"
   y1="267.42581"
   x1="420.48389"
   gradientUnits="userSpaceOnUse"
   id="SVGID_1_">
			<stop
   id="stop3720"
   style="stop-color:#DFF5FB"
   offset="0" />

			<stop
   id="stop3722"
   style="stop-color:#CBDBEB"
   offset="1" />

		</linearGradient>

		<circle
   id="circle3724"
   r="30.792"
   cy="297.54199"
   cx="420.483"
   sodipodi:cx="420.483"
   sodipodi:cy="297.54199"
   sodipodi:rx="30.792"
   sodipodi:ry="30.792"
   style="fill:url(#SVGID_1_)"
   d="m 451.275,297.54199 c 0,17.00595 -13.78605,30.792 -30.792,30.792 -17.00595,0 -30.792,-13.78605 -30.792,-30.792 0,-17.00595 13.78605,-30.792 30.792,-30.792 17.00595,0 30.792,13.78605 30.792,30.792 z" />

	</g>

	<g
   id="g3726">
		<polygon
   id="polygon3728"
   points="430.873,275.113 428.373,317.279 408.706,317.279 410.373,279.779 "
   style="fill:#fe6d34" />

		<polygon
   id="polygon3730"
   points="427.207,279.113 426.039,301.445 411.873,301.445 413.04,281.613 " />

		<polygon
   id="polygon3732"
   points="414.79,303.529 414.79,306.133 411.456,306.029 411.873,303.529 " />

		<polygon
   id="polygon3734"
   points="420.123,303.529 420.123,306.133 416.789,306.029 417.206,303.529 " />

		<polygon
   id="polygon3736"
   points="425.484,303.529 425.484,306.133 422.15,306.029 422.566,303.529 " />

		<polygon
   id="polygon3738"
   points="414.775,307.467 414.775,310.07 411.442,309.967 411.858,307.467 " />

		<polygon
   id="polygon3740"
   points="420.108,307.467 420.108,310.07 416.775,309.967 417.191,307.467 " />

		<polygon
   id="polygon3742"
   points="425.471,307.467 425.471,310.07 422.137,309.967 422.553,307.467 " />

		<polygon
   id="polygon3744"
   points="414.498,311.467 414.498,314.07 411.164,313.967 411.581,311.467 " />

		<polygon
   id="polygon3746"
   points="419.831,311.467 419.831,314.07 416.497,313.967 416.914,311.467 " />

		<polygon
   id="polygon3748"
   points="425.193,311.467 425.193,314.07 421.858,313.967 422.275,311.467 " />

	</g>

</g>
    <g
       id="g3863"
       transform="matrix(1.6237984,0,0,1.6237984,-607.77963,474.90406)">
	<g
   id="g3865">
		<circle
   id="circle3867"
   r="30.792"
   cy="297.117"
   cx="420.483"
   sodipodi:cx="420.483"
   sodipodi:cy="297.117"
   sodipodi:rx="30.792"
   sodipodi:ry="30.792"
   style="fill:#84e4fd"
   d="m 451.275,297.117 c 0,17.00596 -13.78605,30.792 -30.792,30.792 -17.00595,0 -30.792,-13.78604 -30.792,-30.792 0,-17.00595 13.78605,-30.792 30.792,-30.792 17.00595,0 30.792,13.78605 30.792,30.792 z" />

	</g>

	<g
   id="g3869">
		<polygon
   id="polygon3871"
   points="410.373,279.354 430.873,274.688 428.373,316.854 408.706,316.854 "
   style="fill:#fe6d34" />

		<polygon
   id="polygon3873"
   points="413.04,281.188 427.207,278.688 426.039,301.021 411.873,301.021 " />

		<polygon
   id="polygon3875"
   points="411.873,303.104 414.79,303.104 414.79,305.708 411.456,305.604 " />

		<polygon
   id="polygon3877"
   points="417.206,303.104 420.123,303.104 420.123,305.708 416.789,305.604 " />

		<polygon
   id="polygon3879"
   points="422.566,303.104 425.484,303.104 425.484,305.708 422.15,305.604 " />

		<polygon
   id="polygon3881"
   points="411.858,307.042 414.775,307.042 414.775,309.646 411.442,309.542 " />

		<polygon
   id="polygon3883"
   points="417.191,307.042 420.108,307.042 420.108,309.646 416.775,309.542 " />

		<polygon
   id="polygon3885"
   points="422.553,307.042 425.471,307.042 425.471,309.646 422.137,309.542 " />

		<polygon
   id="polygon3887"
   points="411.581,311.042 414.498,311.042 414.498,313.646 411.164,313.542 " />

		<polygon
   id="polygon3889"
   points="416.914,311.042 419.831,311.042 419.831,313.646 416.497,313.542 " />

		<polygon
   id="polygon3891"
   points="422.275,311.042 425.193,311.042 425.193,313.646 421.858,313.542 " />

	</g>

</g>
  </g>
</svg>
