<?xml version="1.0" encoding="UTF-8" standalone="no"?>
<!-- Created with Inkscape (http://www.inkscape.org/) -->

<svg
   xmlns:dc="http://purl.org/dc/elements/1.1/"
   xmlns:cc="http://creativecommons.org/ns#"
   xmlns:rdf="http://www.w3.org/1999/02/22-rdf-syntax-ns#"
   xmlns:svg="http://www.w3.org/2000/svg"
   xmlns="http://www.w3.org/2000/svg"
   xmlns:sodipodi="http://sodipodi.sourceforge.net/DTD/sodipodi-0.dtd"
   xmlns:inkscape="http://www.inkscape.org/namespaces/inkscape"
   width="150"
   height="380"
   id="svg3340"
   version="1.1"
   inkscape:version="0.48.1 r9760"
   sodipodi:docname="New document 7">
  <defs
     id="defs3342" />
  <sodipodi:namedview
     id="base"
     pagecolor="#ffffff"
     bordercolor="#666666"
     borderopacity="1.0"
     inkscape:pageopacity="0.0"
     inkscape:pageshadow="2"
     inkscape:zoom="1.6368421"
     inkscape:cx="75"
     inkscape:cy="190"
     inkscape:document-units="px"
     inkscape:current-layer="layer1"
     showgrid="false"
     inkscape:window-width="1440"
     inkscape:window-height="830"
     inkscape:window-x="0"
     inkscape:window-y="24"
     inkscape:window-maximized="1" />
  <metadata
     id="metadata3345">
    <rdf:RDF>
      <cc:Work
         rdf:about="">
        <dc:format>image/svg+xml</dc:format>
        <dc:type
           rdf:resource="http://purl.org/dc/dcmitype/StillImage" />
        <dc:title></dc:title>
      </cc:Work>
    </rdf:RDF>
  </metadata>
  <g
     inkscape:label="Layer 1"
     inkscape:groupmode="layer"
     id="layer1"
     transform="translate(0,-672.36218)">
    <g
       id="g3428"
       transform="matrix(1.9485581,0,0,1.9485581,-744.79344,192.74993)">
	<g
   id="g3430">
		<linearGradient
   y2="328.6214"
   x2="420.71921"
   y1="267.34079"
   x1="420.71921"
   gradientUnits="userSpaceOnUse"
   id="SVGID_1_">
			<stop
   id="stop3433"
   style="stop-color:#DFF5FB"
   offset="0" />

			<stop
   id="stop3435"
   style="stop-color:#CBDBEB"
   offset="1" />

		</linearGradient>

		<circle
   id="circle3437"
   r="30.792"
   cy="297.457"
   cx="420.71799"
   sodipodi:cx="420.71799"
   sodipodi:cy="297.457"
   sodipodi:rx="30.792"
   sodipodi:ry="30.792"
   style="fill:url(#SVGID_1_)"
   d="m 451.50999,297.457 c 0,17.00595 -13.78605,30.792 -30.792,30.792 -17.00595,0 -30.792,-13.78605 -30.792,-30.792 0,-17.00595 13.78605,-30.792 30.792,-30.792 17.00595,0 30.792,13.78605 30.792,30.792 z" />

	</g>

	<g
   id="g3439">
		<path
   id="path3441"
   d="m 441.162,305.111 c 0.034,3.21 -2.447,5.636 -5.544,5.417 l -32.886,-2.321 c -3.097,-0.219 -5.019,-2.52 -4.294,-5.141 l 3.851,-13.918 c 0.725,-2.621 3.437,-4.868 6.057,-5.02 l 27.826,-1.609 c 2.621,-0.152 4.772,2.328 4.808,5.539 l 0.182,17.053 z"
   inkscape:connector-curvature="0"
   style="fill:#a38629" />

		<polygon
   id="polygon3443"
   points="432.585,307.488 433.417,285.317 410.138,286.332 405.968,305.909 " />

		<polygon
   id="polygon3445"
   points="412.142,290.954 420.462,290.818 419.348,299.721 410.535,299.475 "
   style="fill:#4ec3e6" />

		<polygon
   id="polygon3447"
   points="424.212,298.098 429.008,298.193 428.655,303.859 423.695,303.637 "
   style="fill:#4fc3e5" />

	</g>

</g>
    <g
       id="g3541"
       transform="matrix(1.9485581,0,0,1.9485581,-744.79344,382.85322)">
	<g
   id="g3543">
		<circle
   id="circle3545"
   r="30.792"
   cy="297.40399"
   cx="420.71799"
   sodipodi:cx="420.71799"
   sodipodi:cy="297.40399"
   sodipodi:rx="30.792"
   sodipodi:ry="30.792"
   style="fill:#84e4fd"
   d="m 451.50999,297.40399 c 0,17.00595 -13.78605,30.792 -30.792,30.792 -17.00595,0 -30.792,-13.78605 -30.792,-30.792 0,-17.00595 13.78605,-30.792 30.792,-30.792 17.00595,0 30.792,13.78605 30.792,30.792 z" />

	</g>

	<g
   id="g3547">
		<path
   id="path3549"
   d="m 441.162,305.059 c 0.034,3.21 -2.447,5.636 -5.544,5.417 l -32.886,-2.321 c -3.097,-0.219 -5.019,-2.52 -4.294,-5.141 l 3.851,-13.918 c 0.725,-2.621 3.437,-4.868 6.057,-5.02 l 27.826,-1.609 c 2.621,-0.152 4.772,2.328 4.808,5.539 l 0.182,17.053 z"
   inkscape:connector-curvature="0"
   style="fill:#a38629" />

		<polygon
   id="polygon3551"
   points="432.585,307.436 433.417,285.265 410.138,286.279 405.968,305.856 " />

		<polygon
   id="polygon3553"
   points="412.142,290.901 420.462,290.766 419.348,299.668 410.535,299.422 "
   style="fill:#4ec3e6" />

		<polygon
   id="polygon3555"
   points="424.212,298.045 429.008,298.141 428.655,303.807 423.695,303.584 "
   style="fill:#4fc3e5" />

	</g>

</g>
  </g>
</svg>
