<?xml version="1.0" encoding="utf-8"?>
<!-- Generator: Adobe Illustrator 15.1.0, SVG Export Plug-In . SVG Version: 6.00 Build 0)  -->
<!DOCTYPE svg PUBLIC "-//W3C//DTD SVG 1.1//EN" "http://www.w3.org/Graphics/SVG/1.1/DTD/svg11.dtd">
<svg version="1.1" id="Layer_1" xmlns="http://www.w3.org/2000/svg" xmlns:xlink="http://www.w3.org/1999/xlink" x="0px" y="0px"
	 width="841.89px" height="595.28px" viewBox="0 0 841.89 595.28" enable-background="new 0 0 841.89 595.28" xml:space="preserve">
<g>
	<path fill="#401476" d="M408.259,318.615v8.644c0,2.342,0.971,4.467,2.526,5.987l4.918,4.919h10.363l4.919-4.919
		c1.555-1.521,2.524-3.646,2.524-5.987v-8.644c0-0.099,0.014-0.184,0.017-0.28h-25.283
		C408.246,318.432,408.259,318.517,408.259,318.615z"/>
	<path fill="#401476" d="M446.894,282.77c0-13.89-11.178-25.208-25.257-25.972l0.002-0.073c-0.254,0-0.502,0.03-0.754,0.038
		c-0.253-0.008-0.501-0.038-0.757-0.038l0.005,0.073c-14.078,0.764-25.256,12.082-25.256,25.972
		c0,12.335,10.084,17.752,12.737,29.852h26.54C436.809,300.521,446.894,295.104,446.894,282.77z"/>
</g>
</svg>
