<?xml version="1.0" encoding="utf-8"?>
<!-- Generator: Adobe Illustrator 15.1.0, SVG Export Plug-In . SVG Version: 6.00 Build 0)  -->
<!DOCTYPE svg PUBLIC "-//W3C//DTD SVG 1.1//EN" "http://www.w3.org/Graphics/SVG/1.1/DTD/svg11.dtd">
<svg version="1.1" id="Layer_1" xmlns="http://www.w3.org/2000/svg" xmlns:xlink="http://www.w3.org/1999/xlink" x="0px" y="0px"
	 width="841.89px" height="595.28px" viewBox="0 0 841.89 595.28" enable-background="new 0 0 841.89 595.28" xml:space="preserve">
<path fill="#401476" d="M465.779,294.839c-0.031-0.461-0.06-0.923-0.105-1.38c-0.879-8.903-4.348-17.041-9.633-23.667
	c-1.688-2.115-3.56-4.073-5.593-5.854c-6.895-6.037-15.633-10.019-25.267-10.971c-1.48-0.146-2.981-0.224-4.5-0.224
	s-3.02,0.078-4.5,0.224c-9.634,0.952-18.372,4.934-25.267,10.971c-2.033,1.781-3.905,3.739-5.593,5.854
	c-5.285,6.626-8.754,14.763-9.633,23.667c-0.146,1.48-0.225,2.981-0.225,4.5c0,1.52,0.078,3.02,0.225,4.5
	c0.882,8.926,4.364,17.082,9.672,23.717c1.689,2.111,3.564,4.066,5.6,5.844c6.888,6.016,15.608,9.981,25.221,10.932
	c0.345,0.034,0.693,0.053,1.04,0.079c1.144,0.087,2.294,0.146,3.46,0.146s2.316-0.059,3.46-0.146
	c0.347-0.026,0.695-0.045,1.04-0.079c9.612-0.95,18.333-4.916,25.221-10.932c2.035-1.777,3.91-3.732,5.6-5.844
	c5.308-6.635,8.79-14.791,9.672-23.717c0.046-0.457,0.074-0.919,0.105-1.38c0.07-1.032,0.119-2.07,0.119-3.12
	S465.85,295.871,465.779,294.839z M456.608,293.459h-9.898c-0.379-4.515-1.315-8.904-2.759-13.062
	c2.022-1.216,3.94-2.588,5.741-4.096C453.366,281.21,455.814,287.082,456.608,293.459z M435.721,311.747
	c-3.352-1.182-6.879-1.986-10.539-2.348v-6.94h12.475C437.335,305.656,436.686,308.771,435.721,311.747z M404.295,302.459h11.887
	v6.94c-3.467,0.343-6.813,1.086-10.005,2.167C405.242,308.646,404.61,305.593,404.295,302.459z M406.147,284.44
	c3.2,1.086,6.557,1.833,10.034,2.177v6.841h-11.887C404.605,290.355,405.229,287.334,406.147,284.44z M425.182,267.084
	c2.932,2.817,5.417,6.135,7.406,9.793c-2.372,0.804-4.849,1.373-7.406,1.683V267.084z M416.182,267.68v10.88
	c-2.379-0.288-4.688-0.797-6.908-1.514C411.142,273.572,413.463,270.41,416.182,267.68z M416.182,317.457v10.781
	c-2.695-2.709-4.999-5.844-6.859-9.283C411.526,318.246,413.82,317.743,416.182,317.457z M425.182,328.825v-11.368
	c2.54,0.308,5.001,0.872,7.357,1.666C430.559,322.746,428.087,326.029,425.182,328.825z M425.182,293.459v-6.841
	c3.67-0.363,7.209-1.17,10.568-2.357c0.948,2.948,1.589,6.031,1.906,9.199H425.182z M444.195,270.448
	c-1.109,0.907-2.276,1.746-3.487,2.522c-1.543-2.898-3.354-5.622-5.399-8.13C438.548,266.276,441.537,268.172,444.195,270.448z
	 M406.958,264.451c-2.244,2.694-4.208,5.648-5.862,8.801c-1.37-0.852-2.684-1.788-3.928-2.805
	C400.072,267.962,403.37,265.926,406.958,264.451z M391.671,276.302c1.944,1.628,4.029,3.091,6.231,4.377
	c-1.389,4.073-2.291,8.367-2.661,12.78h-10.487C385.549,287.082,387.997,281.21,391.671,276.302z M384.754,302.459h10.488
	c0.373,4.439,1.286,8.762,2.691,12.861c-2.195,1.28-4.276,2.735-6.216,4.355C388.019,314.755,385.552,308.862,384.754,302.459z
	 M397.228,325.522c1.24-1.009,2.547-1.94,3.911-2.785c1.646,3.126,3.597,6.057,5.823,8.731
	C403.397,330.004,400.118,327.986,397.228,325.522z M435.301,331.082c2.029-2.489,3.829-5.189,5.365-8.062
	c1.204,0.77,2.364,1.603,3.47,2.502C441.49,327.777,438.519,329.656,435.301,331.082z M449.646,319.676
	c-1.797-1.501-3.711-2.865-5.729-4.076c1.46-4.182,2.411-8.599,2.792-13.141h9.899C455.812,308.862,453.345,314.755,449.646,319.676
	z"/>
</svg>
