<?xml version="1.0" encoding="utf-8"?>
<!-- Generator: Adobe Illustrator 15.1.0, SVG Export Plug-In . SVG Version: 6.00 Build 0)  -->
<!DOCTYPE svg PUBLIC "-//W3C//DTD SVG 1.1//EN" "http://www.w3.org/Graphics/SVG/1.1/DTD/svg11.dtd">
<svg version="1.1" id="Layer_1" xmlns="http://www.w3.org/2000/svg" xmlns:xlink="http://www.w3.org/1999/xlink" x="0px" y="0px"
	 width="841.89px" height="595.28px" viewBox="0 0 841.89 595.28" enable-background="new 0 0 841.89 595.28" xml:space="preserve">
<path fill="#401476" d="M440.065,285.713v-33.521h-53.562v61.706h26.887v6.414c-3.085-0.77-6.774-0.438-10.284,1.193
	c-6.809,3.161-10.354,9.975-7.92,15.215c2.434,5.242,9.929,6.93,16.734,3.768c5.33-2.476,8.643-7.186,8.673-11.63h0.015v-14.96
	h19.458v-16.353h7.244v22.767c-3.085-0.77-6.774-0.438-10.284,1.193c-6.809,3.161-10.354,9.975-7.92,15.215
	c2.435,5.242,9.926,6.93,16.735,3.768c5.327-2.476,8.642-7.186,8.673-11.63h0.014v-43.145H440.065z M401.726,306.852h-8.119v-8.12
	h8.119V306.852z M401.726,293.68h-8.119v-8.119h8.119V293.68z M401.726,280.509h-8.119v-8.119h8.119V280.509z M401.726,267.338
	h-8.119v-8.119h8.119V267.338z M433.03,306.852h-8.119v-8.12h8.119V306.852z M433.03,285.713h-8.119v-0.152h8.119V285.713z
	 M433.03,280.509h-8.119v-8.119h8.119V280.509z M433.03,267.338h-8.119v-8.119h8.119V267.338z"/>
</svg>
