<?xml version="1.0" encoding="utf-8"?>
<!-- Generator: Adobe Illustrator 15.1.0, SVG Export Plug-In . SVG Version: 6.00 Build 0)  -->
<!DOCTYPE svg PUBLIC "-//W3C//DTD SVG 1.1//EN" "http://www.w3.org/Graphics/SVG/1.1/DTD/svg11.dtd">
<svg version="1.1" id="Layer_1" xmlns="http://www.w3.org/2000/svg" xmlns:xlink="http://www.w3.org/1999/xlink" x="0px" y="0px"
	 width="841.89px" height="595.28px" viewBox="0 0 841.89 595.28" enable-background="new 0 0 841.89 595.28" xml:space="preserve">
<g>
	<g>
		<g>
			<path fill="#401476" d="M418.594,337.511v-47.614h-37.154v47.614H418.594z M407.219,294.181h6.268v6.265h-6.268V294.181z
				 M407.219,304.158h6.268v6.266h-6.268V304.158z M407.219,314.136h6.268v6.266h-6.268V314.136z M396.918,294.181h6.264v6.265
				h-6.264V294.181z M396.918,304.158h6.264v6.266h-6.264V304.158z M396.918,314.136h6.264v6.266h-6.264V314.136z M386.615,294.181
				h6.266v6.265h-6.266V294.181z M386.615,304.158h6.266v6.266h-6.266V304.158z M386.615,314.136h6.266v6.266h-6.266V314.136z
				 M407.219,323.942h6.268v6.265h-6.268V323.942z M396.918,323.942h6.264v6.265h-6.264V323.942z M386.615,323.942h6.266v6.265
				h-6.266V323.942z"/>
		</g>
	</g>
	<g>
		<g>
			<path fill="#401476" d="M460.061,337.511v-79.154h-37.154v79.154H460.061z M448.686,294.181h6.266v6.265h-6.266V294.181z
				 M448.686,304.158h6.266v6.266h-6.266V304.158z M448.686,314.136h6.266v6.266h-6.266V314.136z M438.383,294.181h6.266v6.265
				h-6.266V294.181z M438.383,304.158h6.266v6.266h-6.266V304.158z M438.383,314.136h6.266v6.266h-6.266V314.136z M428.08,294.181
				h6.266v6.265h-6.266V294.181z M428.08,304.158h6.266v6.266h-6.266V304.158z M428.08,314.136h6.266v6.266h-6.266V314.136z
				 M448.686,263.676h6.266v6.265h-6.266V263.676z M448.686,273.654h6.266v6.265h-6.266V273.654z M448.686,283.631h6.266v6.265
				h-6.266V283.631z M438.383,263.676h6.266v6.265h-6.266V263.676z M438.383,273.654h6.266v6.265h-6.266V273.654z M438.383,283.631
				h6.266v6.265h-6.266V283.631z M428.08,263.676h6.266v6.265h-6.266V263.676z M428.08,273.654h6.266v6.265h-6.266V273.654z
				 M428.08,283.631h6.266v6.265h-6.266V283.631z M448.686,323.942h6.266v6.265h-6.266V323.942z M438.383,323.942h6.266v6.265
				h-6.266V323.942z M428.08,323.942h6.266v6.265h-6.266V323.942z"/>
		</g>
	</g>
</g>
</svg>
