<?xml version="1.0" encoding="utf-8"?>
<!-- Generator: Adobe Illustrator 15.1.0, SVG Export Plug-In . SVG Version: 6.00 Build 0)  -->
<!DOCTYPE svg PUBLIC "-//W3C//DTD SVG 1.1//EN" "http://www.w3.org/Graphics/SVG/1.1/DTD/svg11.dtd">
<svg version="1.1" id="Layer_1" xmlns="http://www.w3.org/2000/svg" xmlns:xlink="http://www.w3.org/1999/xlink" x="0px" y="0px"
	 width="841.89px" height="595.28px" viewBox="0 0 841.89 595.28" enable-background="new 0 0 841.89 595.28" xml:space="preserve">
<path fill="#401476" d="M457.926,281.688v-11.621c0-0.182-0.021-0.359-0.053-0.534c-0.01-0.049-0.02-0.096-0.03-0.145
	c-0.035-0.149-0.078-0.295-0.136-0.437c-0.009-0.021-0.014-0.044-0.022-0.064c-0.066-0.155-0.15-0.303-0.241-0.444
	c-0.025-0.04-0.054-0.078-0.081-0.116c-0.083-0.114-0.171-0.223-0.269-0.324c-0.023-0.024-0.043-0.051-0.067-0.074
	c-0.119-0.118-0.251-0.225-0.39-0.322c-0.037-0.025-0.077-0.047-0.115-0.071c-0.062-0.039-0.12-0.081-0.186-0.115l-34.473-18.355
	c-0.882-0.471-1.938-0.471-2.819,0l-34.475,18.355c-0.066,0.035-0.127,0.079-0.192,0.119c-0.033,0.022-0.07,0.042-0.104,0.065
	c-0.143,0.099-0.273,0.207-0.396,0.327c-0.021,0.02-0.038,0.042-0.059,0.062c-0.102,0.106-0.191,0.219-0.277,0.338
	c-0.027,0.035-0.052,0.07-0.076,0.107c-0.092,0.144-0.176,0.292-0.244,0.449c-0.008,0.019-0.011,0.038-0.019,0.057
	c-0.058,0.145-0.104,0.293-0.14,0.445c-0.01,0.047-0.02,0.094-0.028,0.142c-0.031,0.176-0.054,0.354-0.054,0.535v41.189
	c0,1.108,0.609,2.127,1.589,2.647l34.475,18.355c0.026,0.015,0.058,0.02,0.087,0.033c0.152,0.076,0.312,0.136,0.477,0.185
	c0.061,0.018,0.115,0.04,0.172,0.054c0.219,0.05,0.441,0.082,0.675,0.082c0.231,0,0.454-0.032,0.673-0.082
	c0.058-0.014,0.113-0.036,0.17-0.053c0.166-0.049,0.325-0.109,0.478-0.185c0.029-0.014,0.062-0.019,0.089-0.034l34.473-18.355
	c0.979-0.521,1.59-1.539,1.59-2.647v-27.732C458.115,282.939,458.125,282.3,457.926,281.688z M420.454,255.111l28.09,14.956
	l-28.09,14.958l-28.092-14.958L420.454,255.111z"/>
</svg>
