<?xml version="1.0" encoding="utf-8"?>
<!-- Generator: Adobe Illustrator 15.1.0, SVG Export Plug-In . SVG Version: 6.00 Build 0)  -->
<!DOCTYPE svg PUBLIC "-//W3C//DTD SVG 1.1//EN" "http://www.w3.org/Graphics/SVG/1.1/DTD/svg11.dtd">
<svg version="1.1" id="Layer_1" xmlns="http://www.w3.org/2000/svg" xmlns:xlink="http://www.w3.org/1999/xlink" x="0px" y="0px"
	 width="841.89px" height="595.28px" viewBox="0 0 841.89 595.28" enable-background="new 0 0 841.89 595.28" xml:space="preserve">
<g>
	<path fill="#401476" d="M444.755,336.811l-12.442-15.922v-20.362c2.329,0,4.219-1.888,4.219-4.218c0-2.329-1.89-4.217-4.219-4.217
		h-22.72c-2.331,0-4.218,1.888-4.218,4.217c0,2.33,1.887,4.218,4.218,4.218h0.417v19.828l-12.859,16.456
		c-0.889,1.027-1.424,2.365-1.424,3.83c0,3.235,2.623,5.858,5.86,5.858h38.731c3.238,0,5.861-2.623,5.861-5.858
		C446.18,339.176,445.642,337.838,444.755,336.811z"/>
	<circle fill="#401476" cx="420.953" cy="285.176" r="3.516"/>
	<circle fill="#401476" cx="407.885" cy="272.342" r="6.159"/>
	<circle fill="#401476" cx="429.911" cy="259.296" r="8.96"/>
</g>
</svg>
