<?xml version="1.0" encoding="utf-8"?>
<!-- Generator: Adobe Illustrator 15.1.0, SVG Export Plug-In . SVG Version: 6.00 Build 0)  -->
<!DOCTYPE svg PUBLIC "-//W3C//DTD SVG 1.1//EN" "http://www.w3.org/Graphics/SVG/1.1/DTD/svg11.dtd">
<svg version="1.1" id="Layer_1" xmlns="http://www.w3.org/2000/svg" xmlns:xlink="http://www.w3.org/1999/xlink" x="0px" y="0px"
	 width="841.89px" height="595.28px" viewBox="0 0 841.89 595.28" enable-background="new 0 0 841.89 595.28" xml:space="preserve">
<g>
	<path fill="#401476" d="M456.21,310.332l-30.165-30.165c1.932-7.659-0.084-16.104-5.926-22.08
		c-3.262-3.329-7.238-5.422-11.441-6.269l-5.378,5.379l0.78,0.791l6.783,6.851c2.03,2.079,3.225,5.041,3.225,8.233
		c0,3.174-1.391,5.975-3.438,8.053c-2.078,2.046-4.894,3.452-8.068,3.452c-3.191,0-6.153-1.193-8.232-3.224l-6.852-6.783
		l-0.791-0.78l-5.379,5.378c0.848,4.202,2.94,8.18,6.27,11.441c5.975,5.843,14.42,7.841,22.064,5.909l30.181,30.181
		c2.077,2.078,5.024,3.273,8.184,3.273c6.333,0,11.456-5.122,11.456-11.457C459.482,315.357,458.287,312.41,456.21,310.332z"/>
</g>
</svg>
