<?xml version="1.0" encoding="utf-8"?>
<!-- Generator: Adobe Illustrator 15.1.0, SVG Export Plug-In . SVG Version: 6.00 Build 0)  -->
<!DOCTYPE svg PUBLIC "-//W3C//DTD SVG 1.1//EN" "http://www.w3.org/Graphics/SVG/1.1/DTD/svg11.dtd">
<svg version="1.1" id="Layer_1" xmlns="http://www.w3.org/2000/svg" xmlns:xlink="http://www.w3.org/1999/xlink" x="0px" y="0px"
	 width="841.89px" height="595.28px" viewBox="0 0 841.89 595.28" enable-background="new 0 0 841.89 595.28" xml:space="preserve">
<g>
	<g>
		<polygon fill="#FFC700" points="392.236,277.637 385.459,295.886 408.573,302.316 416.916,277.637 		"/>
		<polygon points="389.282,291.541 393.453,280.07 413.787,280.07 408.748,294.147 		"/>
		<polygon points="389.022,292.583 388.24,294.668 392.584,295.537 393.41,293.234 		"/>
		<polygon points="395.355,293.509 394.404,296.046 399.314,297.104 400.318,294.302 		"/>
		<polygon points="401.761,294.625 400.612,297.837 406.836,299.145 408.028,295.715 		"/>
		<polygon fill="#FFC700" points="416.133,289.977 410.789,305.487 382.895,296.885 386.284,287.76 382.895,287.76 378.333,299.145 
			418.089,317.74 427.082,289.977 		"/>
	</g>
</g>
</svg>
