<?xml version="1.0" encoding="utf-8"?>
<!-- Generator: Adobe Illustrator 15.1.0, SVG Export Plug-In . SVG Version: 6.00 Build 0)  -->
<!DOCTYPE svg PUBLIC "-//W3C//DTD SVG 1.1//EN" "http://www.w3.org/Graphics/SVG/1.1/DTD/svg11.dtd">
<svg version="1.1" id="Layer_1" xmlns="http://www.w3.org/2000/svg" xmlns:xlink="http://www.w3.org/1999/xlink" x="0px" y="0px"
	 width="841.89px" height="595.28px" viewBox="0 0 841.89 595.28" enable-background="new 0 0 841.89 595.28" xml:space="preserve">
<g>
	<g>
		<polygon fill="#9900FF" points="395.374,279.99 420.374,279.99 425.749,303.74 402.499,310.49 		"/>
		<polygon fill="#9900FF" points="393.499,279.99 385.124,279.99 392.374,313.24 400.749,311.115 		"/>
		<polygon fill="#9900FF" points="383.499,279.99 380.249,279.99 386.999,314.99 390.124,313.99 		"/>
		<polygon points="399.374,285.365 419.874,285.365 422.999,299.115 403.749,303.99 		"/>
		<polygon points="388.124,285.782 393.874,285.782 396.957,299.365 391.457,300.282 		"/>
		<polygon points="391.874,301.615 393.043,301.437 393.604,302.782 392.27,303.012 		"/>
		<polygon points="396.094,300.827 397.262,300.648 397.822,301.994 396.488,302.224 		"/>
		<polygon points="394.039,301.218 395.207,301.039 395.768,302.385 394.435,302.614 		"/>
		<polygon points="392.4,303.979 393.568,303.8 394.129,305.146 392.795,305.375 		"/>
		<polygon points="396.619,303.19 397.787,303.012 398.348,304.357 397.015,304.587 		"/>
		<polygon points="394.564,303.581 395.733,303.402 396.294,304.748 394.961,304.978 		"/>
		<polygon points="393.119,306.342 394.287,306.163 394.848,307.509 393.515,307.738 		"/>
		<polygon points="397.338,305.554 398.507,305.375 399.067,306.721 397.734,306.95 		"/>
		<polygon points="395.284,305.944 396.453,305.766 397.014,307.111 395.68,307.341 		"/>
	</g>
</g>
</svg>
