<?xml version="1.0" encoding="utf-8"?>
<!-- Generator: Adobe Illustrator 15.1.0, SVG Export Plug-In . SVG Version: 6.00 Build 0)  -->
<!DOCTYPE svg PUBLIC "-//W3C//DTD SVG 1.1//EN" "http://www.w3.org/Graphics/SVG/1.1/DTD/svg11.dtd">
<svg version="1.1" id="Layer_1" xmlns="http://www.w3.org/2000/svg" xmlns:xlink="http://www.w3.org/1999/xlink" x="0px" y="0px"
	 width="841.89px" height="595.28px" viewBox="0 0 841.89 595.28" enable-background="new 0 0 841.89 595.28" xml:space="preserve">
<g>
	<g>
		<polygon fill="#FFC700" points="419.601,311.867 385.222,318.293 390.362,281.021 413.817,276.846 		"/>
		<path d="M415.977,305.82c0.236,1.687-1.686,3.447-4.291,3.933l-18.351,3.418c-2.606,0.485-4.556-0.561-4.355-2.337l2.661-23.509
			c0.2-1.776,1.916-3.495,3.832-3.838l13.487-2.417c1.915-0.344,3.659,0.744,3.896,2.432L415.977,305.82z"/>
		<path fill="#85B26D" d="M402.113,289.992c0.012,1.481-1.477,2.955-3.325,3.293l-0.837,0.152c-1.848,0.336-3.258-0.611-3.146-2.119
			l0.076-1.044c0.109-1.507,1.594-2.979,3.312-3.29l0.778-0.141c1.719-0.311,3.121,0.64,3.134,2.121L402.113,289.992z"/>
		<path fill="#4BB5EA" d="M410.974,288.383c0.16,1.451-1.208,2.901-3.057,3.238l-0.837,0.152c-1.849,0.336-3.377-0.587-3.416-2.062
			l-0.025-1.023c-0.038-1.477,1.325-2.925,3.044-3.235l0.778-0.141c1.719-0.31,3.242,0.614,3.402,2.065L410.974,288.383z"/>
		<path fill="#FFC700" d="M411.858,296.404c0.159,1.45-1.343,2.928-3.357,3.299l-0.911,0.168c-2.014,0.371-3.679-0.525-3.716-2.002
			l-0.026-1.023c-0.037-1.476,1.459-2.951,3.345-3.296l0.854-0.156c1.884-0.344,3.541,0.554,3.701,2.004L411.858,296.404z"/>
	</g>
</g>
</svg>
