<?xml version="1.0" encoding="utf-8"?>
<!-- Generator: Adobe Illustrator 15.1.0, SVG Export Plug-In . SVG Version: 6.00 Build 0)  -->
<!DOCTYPE svg PUBLIC "-//W3C//DTD SVG 1.1//EN" "http://www.w3.org/Graphics/SVG/1.1/DTD/svg11.dtd">
<svg version="1.1" id="Layer_1" xmlns="http://www.w3.org/2000/svg" xmlns:xlink="http://www.w3.org/1999/xlink" x="0px" y="0px"
	 width="841.89px" height="595.28px" viewBox="0 0 841.89 595.28" enable-background="new 0 0 841.89 595.28" xml:space="preserve">
<g>
	<g>
		<path fill="#A38629" d="M424.495,306.059c0.034,3.21-2.447,5.636-5.544,5.417l-32.886-2.321c-3.097-0.219-5.019-2.52-4.294-5.141
			l3.851-13.918c0.725-2.621,3.437-4.868,6.057-5.02l27.826-1.609c2.621-0.152,4.772,2.328,4.808,5.539L424.495,306.059z"/>
		<polygon points="393.471,287.279 389.301,306.856 415.918,308.436 416.75,286.265 		"/>
		<polygon fill="#4EC3E6" points="402.681,300.668 393.868,300.422 395.475,291.901 403.795,291.766 		"/>
		<polygon fill="#4FC3E5" points="411.988,304.807 407.028,304.584 407.545,299.045 412.341,299.141 		"/>
	</g>
</g>
</svg>
